<svg width="0" height="0" class="hidden">
  <!-- id="right-arrow" -->
  <symbol xmlns="http://www.w3.org/2000/svg" viewBox="0 0 492.004 492.004" id="right-arrow">
    <path d="M382.678 226.804L163.73 7.86C158.666 2.792 151.906 0 144.698 0s-13.968 2.792-19.032 7.86l-16.124 16.12c-10.492 10.504-10.492 27.576 0 38.064L293.398 245.9l-184.06 184.06c-5.064 5.068-7.86 11.824-7.86 19.028 0 7.212 2.796 13.968 7.86 19.04l16.124 16.116c5.068 5.068 11.824 7.86 19.032 7.86s13.968-2.792 19.032-7.86L382.678 265c5.076-5.084 7.864-11.872 7.848-19.088.016-7.244-2.772-14.028-7.848-19.108z"></path>
  </symbol>
  <symbol xmlns="http://www.w3.org/2000/svg" viewBox="0 0 492 492" id="left-arrow">
    <path d="M198.608,246.104L382.664,62.04c5.068-5.056,7.856-11.816,7.856-19.024c0-7.212-2.788-13.968-7.856-19.032l-16.128-16.12 C361.476,2.792,354.712,0,347.504,0s-13.964,2.792-19.028,7.864L109.328,227.008c-5.084,5.08-7.868,11.868-7.848,19.084 c-0.02,7.248,2.76,14.028,7.848,19.112l218.944,218.932c5.064,5.072,11.82,7.864,19.032,7.864c7.208,0,13.964-2.792,19.032-7.864 l16.124-16.12c10.492-10.492,10.492-27.572,0-38.06L198.608,246.104z"/>
  </symbol>
  <!-- id="charade-logo" -->
  <symbol xmlns="http://www.w3.org/2000/svg" viewBox="0 0 300 350" id="charade-logo">
    <g stroke="#000" stroke-miterlimit="10">
      <path fill="#FFA45B" d="M132.2 91.1h0c-23.2 0-42-18.8-42-42v0c0-23.2 18.8-42 42-42h0c23.2 0 42 18.8 42 42v0c-.1 23.2-18.9 42-42 42z"></path>
      <path fill="#FFDA77" d="M48.2 258.9h0c-23.2 0-42-18.8-42-42v0c0-23.2 18.8-42 42-42h0c23.2 0 42 18.8 42 42v0c0 23.2-18.8 42-42 42zm84 83.9h0c-23.2 0-42-18.8-42-42v0c0-23.2 18.8-42 42-42h0c23.2 0 42 18.8 42 42v0c-.1 23.3-18.9 42-42 42zm83.9-251.7h0c-23.2 0-42-18.8-42-42v0c0-23.2 18.8-42 42-42h0c23.2 0 42 18.8 42 42v0c-.1 23.2-18.8 42-42 42z"></path>
      <path fill="#FFA45B" d="M48.2 175h0c-23.2 0-42-18.8-42-42v0c0-23.2 18.8-42 42-42h0c23.2 0 42 18.8 42 42v0c0 23.2-18.8 42-42 42zm167.9 167.8h0c-23.2 0-42-18.8-42-42v0c0-23.2 18.8-42 42-42h0c23.2 0 42 18.8 42 42v0c-.1 23.3-18.8 42-42 42z"></path>
      <path fill="#FFDA77" d="M268.7 116.1h0c-13.8 0-25-11.2-25-25v0c0-13.8 11.2-25 25-25h0c13.8 0 25 11.2 25 25v0c0 13.8-11.2 25-25 25z"></path>
      <path fill="#FFA45B" d="M268.7 283.9h0c-13.8 0-25-11.2-25-25v0c0-13.8 11.2-25 25-25h0c13.8 0 25 11.2 25 25v0c0 13.8-11.2 25-25 25z"></path>
      <path d="M67.4 306.8h0c-13.8 0-25-11.2-25-25v0c0-13.8 11.2-25 25-25h0c13.8 0 25 11.2 25 25v0c0 13.9-11.2 25-25 25zm0-213.2h0c-13.8 0-25-11.2-25-25v0c0-13.8 11.2-25 25-25h0c13.8 0 25 11.2 25 25v0c0 13.8-11.2 25-25 25z"></path>
    </g>
  </symbol>
  <!-- id="checkmark" -->
  <symbol viewBox="0 -16 512.06719 512"
    xmlns="http://www.w3.org/2000/svg" id="checkmark">
    <path d="m324.082031 480.058594c-7.550781 0-14.996093-2.328125-21.375-6.914063l-59.796875-42.921875c-1.558594-1.046875-4.140625-1.066406-5.996094.191406l-59.519531 42.710938c-10.664062 7.507812-24 8.9375-35.773437 4.007812-11.734375-4.925781-19.992188-15.378906-22.0625-27.964843l-12.074219-72.683594c-.339844-2.003906-1.917969-3.585937-3.945313-3.925781l-72.703124-12.074219c-12.566407-2.070313-23.019532-10.304687-27.949219-22.058594-4.949219-11.796875-3.476563-25.132812 3.949219-35.648437l42.984374-59.902344c1.066407-1.558594 1.066407-4.140625-.191406-5.996094l-42.664062-59.457031c-7.488282-10.429687-8.984375-23.722656-4.078125-35.582031 4.910156-11.863282 15.382812-20.183594 28.011719-22.25l72.683593-12.078125c2.003907-.339844 3.582031-1.917969 3.925781-3.945313l12.074219-72.703125c2.070313-12.566406 10.304688-22.996093 22.058594-27.925781 11.777344-4.972656 25.128906-3.5 35.648437 3.945312l59.902344 42.988282c1.707032 1.214844 4.03125 1.238281 5.738282-.023438l59.757812-42.898437c10.429688-7.46875 23.742188-8.960938 35.582031-4.054688 11.863281 4.90625 20.160157 15.382813 22.25 28.011719l4.054688 24.40625c1.449219 8.722656-4.4375 16.957031-13.164063 18.410156-8.746094 1.40625-16.957031-4.4375-18.410156-13.164062l-4.054688-24.449219c-.359374-2.28125-1.980468-3.261719-2.921874-3.648437-.917969-.402344-2.792969-.851563-4.671876.492187l-59.773437 42.921875c-12.886719 9.195312-30.144531 9.195312-43.007813.023438l-59.839843-42.945313c-1.902344-1.34375-3.800781-.894531-4.714844-.511719-1.109375.46875-2.496094 1.472656-2.859375 3.648438l-12.097656 72.746094c-2.582032 15.507812-14.71875 27.648437-30.230469 30.230468l-72.722656 12.09375c-2.285157.363282-3.265625 1.984375-3.648438 2.925782-.40625.9375-.855469 2.792968.488281 4.671874l42.070313 58.515626c9.75 14.25 9.75 31.316406 1.046875 44.011718l-43.117188 60.074219c-1.34375 1.898437-.894531 3.796875-.511718 4.734375.472656 1.109375 1.472656 2.496094 3.648437 2.859375l72.746094 12.097656c15.511719 2.578125 27.648437 14.71875 30.230469 30.226563l12.074218 72.726562c.363282 2.199219 1.773438 3.199219 2.859376 3.667969.917968.386719 2.796874.832031 4.84375-.574219l59.667968-42.835937c12.992188-8.898438 30.058594-8.898438 42.753906-.195313l60.074219 43.117188c1.875 1.34375 3.710938.894531 4.671875.488281.917969-.382813 2.558594-1.363281 2.921875-3.625l12.097657-72.746094c2.578124-15.511719 14.71875-27.648437 30.226562-30.230469l72.726562-12.074218c2.199219-.363282 3.199219-1.769532 3.667969-2.859375.386719-.9375.855469-2.816407-.574219-4.84375l-42.835937-59.667969c-5.144531-7.167969-3.523437-17.171875 3.667969-22.335938 7.167968-5.121093 17.195312-3.5 22.335937 3.667969l42.921875 59.800781c7.488282 10.644532 8.960938 23.976563 4.011719 35.773438-4.929687 11.734375-15.382813 19.988281-27.96875 22.058594l-72.683594 12.074218c-2.003906.34375-3.582031 1.921876-3.925781 3.949219l-12.074219 72.703125c-2.066406 12.585938-10.386719 23.0625-22.226562 27.988282-4.609375 1.835937-9.429688 2.753906-14.210938 2.753906zm0 0"/>
    <path d="m261.382812 298.722656c-4.09375 0-8.191406-1.554687-11.304687-4.691406l-96-96c-6.25-6.25-6.25-16.382812 0-22.636719 6.25-6.25 16.382813-6.25 22.632813 0l84.695312 84.695313 223.339844-223.339844c6.25-6.25 16.382812-6.25 22.632812 0s6.25 16.382812 0 22.636719l-234.667968 234.664062c-3.132813 3.117188-7.230469 4.671875-11.328126 4.671875zm0 0"/>
  </symbol>
  <!-- id="sand-timer" -->
  <symbol version="1.1" id="sand-timer"
    xmlns="http://www.w3.org/2000/svg" viewBox="0 0 477.867 477.867" style="enable-background:new 0 0 477.867 477.867;">
    <g>
      <path d="M425.523,393.284c-3.949-31.526-19.332-60.506-43.23-81.442l-83.302-72.909l83.302-72.909
			c23.898-20.936,39.281-49.916,43.23-81.442c23.151-4.391,38.36-26.718,33.969-49.87C455.712,14.78,438.419,0.267,418.133,0h-358.4
			c-23.562,0.31-42.412,19.661-42.103,43.223c0.266,20.286,14.78,37.579,34.713,41.359c3.949,31.526,19.331,60.506,43.23,81.442
			l83.302,72.909l-83.302,72.909c-23.898,20.936-39.281,49.916-43.23,81.442c-23.151,4.391-38.36,26.718-33.969,49.87
			c3.78,19.932,21.073,34.446,41.359,34.713h358.4c23.562-0.31,42.412-19.661,42.103-43.223
			C459.969,414.357,445.455,397.065,425.523,393.284z M51.2,42.667c0-4.713,3.82-8.533,8.533-8.533h358.4
			c4.713,0,8.533,3.82,8.533,8.533s-3.82,8.533-8.533,8.533h-358.4C55.021,51.2,51.2,47.38,51.2,42.667z M118.033,337.527
			l97.997-85.76c7.069-6.234,7.746-17.019,1.511-24.089c-0.472-0.535-0.977-1.04-1.511-1.511l-97.997-85.828
			c-16.315-14.279-27.302-33.671-31.164-55.006h304.128c-3.862,21.334-14.848,40.727-31.164,55.006l-97.997,85.76
			c-7.069,6.234-7.746,17.019-1.511,24.089c0.472,0.535,0.977,1.04,1.511,1.511l97.997,85.76
			c16.329,14.296,27.317,33.715,31.164,55.074H86.869C90.731,371.199,101.718,351.806,118.033,337.527z M418.133,443.733h-358.4
			c-4.713,0-8.533-3.821-8.533-8.533c0-4.713,3.82-8.533,8.533-8.533h358.4c4.713,0,8.533,3.821,8.533,8.533
			C426.667,439.913,422.846,443.733,418.133,443.733z"/>
    </g>
  </symbol>
</svg>